<svg width="31" height="32" viewBox="0 0 31 32" fill="none" xmlns="http://www.w3.org/2000/svg">
<path fill-rule="evenodd" clip-rule="evenodd" d="M15.5 0.999998C7.21573 0.999998 0.499998 7.71573 0.499998 16C0.499998 24.2843 7.21573 31 15.5 31C23.7843 31 30.5 24.2843 30.5 16C30.5 7.71573 23.7843 0.999998 15.5 0.999998Z" stroke="#1E2E36"/>
<path d="M19.3192 16.1305C19.3192 16.3408 19.2409 16.5512 19.0846 16.7116L14.1652 21.7592C13.8522 22.0803 13.3448 22.0803 13.032 21.7592C12.7192 21.4382 12.7192 20.9177 13.032 20.5966L17.385 16.1305L13.0322 11.6643C12.7194 11.3432 12.7194 10.8227 13.0322 10.5018C13.345 10.1806 13.8524 10.1806 14.1653 10.5018L19.0848 15.5493C19.241 15.7098 19.3192 15.9201 19.3192 16.1305Z" fill="#1E2E36"/>
</svg>
